<svg width="130" height="35" fill="none" xmlns="http://www.w3.org/2000/svg"><g clip-path="url(#clip0)"><rect width="130" height="35" rx="6" fill="#000"/><path d="M29.797 17.864a4.95 4.95 0 0 1 2.357-4.152 5.066 5.066 0 0 0-3.991-2.158c-1.68-.176-3.308 1.005-4.163 1.005-.872 0-2.19-.988-3.609-.958a5.315 5.315 0 0 0-4.473 2.727c-1.934 3.349-.491 8.27 1.362 10.977.926 1.325 2.01 2.805 3.427 2.753 1.387-.058 1.905-.885 3.58-.885 1.658 0 2.144.885 3.59.852 1.489-.025 2.427-1.332 3.321-2.67a10.963 10.963 0 0 0 1.519-3.092 4.783 4.783 0 0 1-2.92-4.4zm-2.731-8.09a4.872 4.872 0 0 0 1.114-3.49 4.957 4.957 0 0 0-3.207 1.659 4.636 4.636 0 0 0-1.144 3.361 4.1 4.1 0 0 0 3.237-1.53zM47.33 24.703h-4.734l-1.136 3.356h-2.005l4.483-12.418h2.083l4.484 12.418h-2.04l-1.135-3.356zm-4.243-1.55h3.752l-1.85-5.447h-.052l-1.85 5.448zm17.1.38c0 2.813-1.506 4.62-3.778 4.62a3.07 3.07 0 0 1-2.849-1.583h-.043v4.484H51.66V19.005h1.799v1.506h.034a3.212 3.212 0 0 1 2.883-1.6c2.297 0 3.812 1.816 3.812 4.622zm-1.91 0c0-1.833-.947-3.038-2.393-3.038-1.42 0-2.375 1.23-2.375 3.038 0 1.824.956 3.046 2.375 3.046 1.446 0 2.393-1.197 2.393-3.046zm11.875 0c0 2.813-1.506 4.62-3.778 4.62a3.07 3.07 0 0 1-2.849-1.583h-.043v4.484h-1.858V19.005h1.798v1.506h.035a3.213 3.213 0 0 1 2.883-1.6c2.297 0 3.812 1.816 3.812 4.622zm-1.91 0c0-1.833-.947-3.038-2.393-3.038-1.42 0-2.375 1.23-2.375 3.038 0 1.824.955 3.046 2.375 3.046 1.446 0 2.393-1.197 2.393-3.046zm8.496 1.066c.138 1.232 1.334 2.04 2.969 2.04 1.566 0 2.693-.808 2.693-1.919 0-.964-.68-1.54-2.289-1.936l-1.61-.388c-2.28-.55-3.338-1.617-3.338-3.348 0-2.142 1.867-3.614 4.518-3.614 2.624 0 4.423 1.472 4.484 3.614H82.29c-.113-1.239-1.137-1.987-2.634-1.987-1.497 0-2.522.757-2.522 1.858 0 .878.655 1.395 2.255 1.79l1.368.336c2.548.603 3.607 1.626 3.607 3.443 0 2.323-1.85 3.778-4.794 3.778-2.754 0-4.613-1.42-4.733-3.667h1.902zm11.636-7.736v2.142h1.721v1.472h-1.721v4.991c0 .776.344 1.137 1.101 1.137.205-.004.409-.018.612-.043v1.463c-.34.064-.686.092-1.033.086-1.833 0-2.548-.689-2.548-2.445v-5.189h-1.316v-1.472h1.316v-2.142h1.868zm2.719 6.67c0-2.849 1.677-4.639 4.294-4.639 2.624 0 4.294 1.79 4.294 4.639 0 2.856-1.66 4.638-4.294 4.638-2.633 0-4.294-1.782-4.294-4.638zm6.695 0c0-1.954-.896-3.108-2.402-3.108-1.505 0-2.4 1.162-2.4 3.108 0 1.962.895 3.106 2.4 3.106 1.506 0 2.402-1.144 2.402-3.106zm3.426-4.528h1.772v1.541h.043a2.162 2.162 0 0 1 2.178-1.635c.214-.001.427.022.636.069v1.738a2.591 2.591 0 0 0-.835-.112 1.872 1.872 0 0 0-1.936 2.083v5.37h-1.858v-9.054zm13.198 6.395c-.25 1.644-1.851 2.771-3.899 2.771-2.633 0-4.268-1.764-4.268-4.595 0-2.84 1.643-4.682 4.19-4.682 2.505 0 4.08 1.72 4.08 4.466v.637h-6.394v.112a2.353 2.353 0 0 0 1.458 2.391c.31.127.643.186.977.173a2.05 2.05 0 0 0 2.091-1.273h1.765zm-6.282-2.702h4.526a2.184 2.184 0 0 0-.608-1.634 2.188 2.188 0 0 0-1.613-.664 2.29 2.29 0 0 0-2.305 2.298zM42.855 6.294a2.64 2.64 0 0 1 2.807 2.965c0 1.906-1.03 3.002-2.807 3.002h-2.156V6.294h2.156zm-1.229 5.123h1.125a1.876 1.876 0 0 0 1.968-2.146 1.881 1.881 0 0 0-1.968-2.134h-1.125v4.28zm5.083-1.41a2.134 2.134 0 1 1 4.247 0 2.133 2.133 0 1 1-4.247 0zm3.333 0c0-.976-.438-1.547-1.208-1.547-.772 0-1.207.571-1.207 1.547 0 .984.435 1.55 1.207 1.55.77 0 1.208-.57 1.208-1.55zm6.56 2.254h-.922l-.93-3.317h-.071l-.927 3.317h-.913l-1.241-4.503h.901l.807 3.436h.066l.926-3.436h.852l.926 3.436h.07l.803-3.436h.889l-1.236 4.503zm2.28-4.503h.855v.715h.067a1.348 1.348 0 0 1 1.344-.802 1.465 1.465 0 0 1 1.558 1.675v2.915h-.889V9.569c0-.724-.314-1.084-.971-1.084a1.033 1.033 0 0 0-1.075 1.141v2.635h-.889V7.758zM64.122 6h.889v6.26h-.889V6zm2.124 4.007a2.133 2.133 0 1 1 4.248 0 2.134 2.134 0 1 1-4.248 0zm3.333 0c0-.976-.438-1.547-1.208-1.547-.772 0-1.207.571-1.207 1.547 0 .984.435 1.55 1.207 1.55.77 0 1.208-.57 1.208-1.55zm1.85.98c0-.81.604-1.278 1.675-1.344l1.22-.07v-.389c0-.475-.315-.744-.922-.744-.496 0-.84.182-.939.5h-.86c.091-.773.819-1.27 1.84-1.27 1.129 0 1.766.563 1.766 1.514v3.077h-.856v-.633h-.07a1.515 1.515 0 0 1-1.353.707 1.36 1.36 0 0 1-1.5-1.348zm2.895-.385v-.376l-1.1.07c-.62.042-.901.253-.901.65 0 .405.351.64.835.64a1.06 1.06 0 0 0 1.166-.984zm2.053-.595c0-1.423.731-2.324 1.869-2.324a1.484 1.484 0 0 1 1.38.79h.067V6h.889v6.26h-.852v-.71h-.07a1.563 1.563 0 0 1-1.414.785c-1.146 0-1.87-.901-1.87-2.328zm.918 0c0 .955.45 1.53 1.203 1.53.749 0 1.212-.583 1.212-1.526 0-.938-.468-1.53-1.212-1.53-.748 0-1.203.58-1.203 1.526zm6.963 0a2.132 2.132 0 1 1 4.248 0 2.133 2.133 0 1 1-4.248 0zm3.334 0c0-.976-.439-1.547-1.209-1.547-.772 0-1.206.571-1.206 1.547 0 .984.434 1.55 1.206 1.55.77 0 1.209-.57 1.209-1.55zm2.106-2.25h.855v.716h.067a1.347 1.347 0 0 1 1.343-.802 1.465 1.465 0 0 1 1.56 1.675v2.915h-.89V9.569c0-.724-.314-1.084-.971-1.084a1.033 1.033 0 0 0-1.076 1.141v2.635h-.888V7.758zm8.846-1.12v1.141h.975v.749h-.975v2.315c0 .472.194.678.636.678.114 0 .227-.007.34-.02v.74c-.16.029-.322.044-.484.046-.989 0-1.382-.348-1.382-1.216V8.527h-.715v-.749h.715V6.637h.89zM100.733 6h.881v2.481h.07a1.389 1.389 0 0 1 1.373-.806 1.482 1.482 0 0 1 1.551 1.679v2.907h-.89V9.573c0-.72-.335-1.084-.962-1.084a1.056 1.056 0 0 0-1.076.691 1.046 1.046 0 0 0-.058.45v2.63h-.889V6zm9.057 5.045a1.832 1.832 0 0 1-1.951 1.303 2.042 2.042 0 0 1-1.579-.68 2.062 2.062 0 0 1-.432-.768 2.065 2.065 0 0 1-.07-.877 2.077 2.077 0 0 1 2.077-2.352c1.253 0 2.008.856 2.008 2.27v.31h-3.179v.05a1.19 1.19 0 0 0 1.199 1.29 1.08 1.08 0 0 0 1.071-.546h.856zm-3.126-1.451h2.274a1.089 1.089 0 0 0-.666-1.084 1.088 1.088 0 0 0-.442-.083 1.151 1.151 0 0 0-1.166 1.167z" fill="#fff"/></g><defs><clipPath id="clip0"><path fill="#fff" d="M0 0H130V35H0z"/></clipPath></defs></svg>