<svg width="130" height="35" fill="none" xmlns="http://www.w3.org/2000/svg"><g clip-path="url(#clip0)"><rect width="130" height="35" rx="6" fill="#000"/><path d="M45.518 8.134c0 .76-.19 1.424-.665 1.9-.57.569-1.235.854-2.09.854-.854 0-1.519-.285-2.089-.855-.57-.57-.854-1.234-.854-2.089s.285-1.52.854-2.09c.57-.57 1.235-.854 2.09-.854.38 0 .76.095 1.14.285.379.19.664.38.854.665l-.475.474c-.38-.474-.855-.664-1.52-.664-.57 0-1.14.19-1.519.665-.475.38-.665.95-.665 1.614 0 .665.19 1.235.665 1.614.475.38.95.665 1.52.665.664 0 1.14-.19 1.614-.665.285-.285.475-.664.475-1.14h-2.09v-.759h2.755v.38zm4.368-2.374h-2.564v1.804h2.374v.665h-2.374v1.804h2.564v.76h-3.324V5.095h3.324v.665zm3.134 5.033h-.76V5.76h-1.614v-.665h3.988v.665H53.02v5.033zm4.368 0V5.095h.76v5.698h-.76zm3.989 0h-.76V5.76h-1.614v-.665h3.894v.665h-1.615v5.033h.095zm9.022-.76c-.57.57-1.235.855-2.09.855-.854 0-1.519-.285-2.089-.855-.57-.57-.854-1.234-.854-2.089s.284-1.52.854-2.09c.57-.57 1.235-.854 2.09-.854.854 0 1.52.285 2.089.855.57.57.855 1.234.855 2.089s-.285 1.52-.855 2.09zm-3.609-.475c.38.38.95.665 1.52.665.57 0 1.14-.19 1.52-.665.379-.38.664-.95.664-1.614 0-.665-.19-1.235-.665-1.614-.38-.38-.95-.665-1.52-.665-.57 0-1.139.19-1.519.665-.38.38-.665.95-.665 1.614 0 .665.19 1.235.665 1.614zm5.508 1.235V5.095h.855l2.754 4.463V5.095h.76v5.698h-.76L72.963 6.14v4.653h-.665zm-7.122 8.357c-2.28 0-4.084 1.71-4.084 4.084a4.053 4.053 0 0 0 4.084 4.083c2.279 0 4.083-1.71 4.083-4.083 0-2.47-1.804-4.084-4.083-4.084zm0 6.458c-1.235 0-2.28-1.045-2.28-2.47 0-1.424 1.045-2.468 2.28-2.468 1.234 0 2.279.95 2.279 2.469 0 1.424-1.045 2.469-2.28 2.469zm-8.832-6.458c-2.28 0-4.084 1.71-4.084 4.084a4.053 4.053 0 0 0 4.084 4.083c2.279 0 4.083-1.71 4.083-4.083 0-2.47-1.804-4.084-4.083-4.084zm0 6.458c-1.235 0-2.28-1.045-2.28-2.47 0-1.424 1.045-2.468 2.28-2.468 1.234 0 2.279.95 2.279 2.469 0 1.424-1.045 2.469-2.28 2.469zm-10.541-5.223v1.71h4.083c-.095.949-.475 1.709-.95 2.183-.57.57-1.52 1.235-3.133 1.235-2.565 0-4.464-1.994-4.464-4.559 0-2.564 1.994-4.558 4.464-4.558 1.329 0 2.374.57 3.133 1.235l1.235-1.235c-1.045-.95-2.374-1.71-4.274-1.71-3.418 0-6.362 2.85-6.362 6.268 0 3.42 2.944 6.268 6.362 6.268 1.9 0 3.23-.57 4.369-1.804 1.14-1.14 1.52-2.754 1.52-3.989 0-.38 0-.76-.096-1.044h-5.887zm43.114 1.33c-.38-.95-1.33-2.565-3.418-2.565-2.09 0-3.8 1.615-3.8 4.084 0 2.279 1.71 4.083 3.99 4.083 1.804 0 2.944-1.14 3.323-1.804l-1.33-.95c-.474.665-1.044 1.14-1.993 1.14-.95 0-1.52-.38-1.995-1.235l5.413-2.279-.19-.475zm-5.508 1.329c0-1.52 1.235-2.374 2.09-2.374.664 0 1.33.38 1.52.854l-3.61 1.52zm-4.463 3.893h1.804v-11.87h-1.804v11.87zm-2.85-6.932c-.474-.475-1.234-.95-2.183-.95-1.995 0-3.894 1.805-3.894 4.084s1.804 3.988 3.894 3.988c.95 0 1.709-.474 2.089-.95h.095v.57c0 1.52-.855 2.375-2.184 2.375-1.045 0-1.805-.76-1.995-1.425l-1.52.665c.476 1.045 1.615 2.374 3.61 2.374 2.089 0 3.798-1.235 3.798-4.178V19.34h-1.71v.665zm-2.088 5.603c-1.235 0-2.28-1.045-2.28-2.47 0-1.424 1.045-2.468 2.28-2.468 1.234 0 2.184 1.044 2.184 2.469 0 1.424-.95 2.469-2.184 2.469zM97.18 15.066h-4.274v11.871h1.804v-4.463h2.47c1.994 0 3.893-1.425 3.893-3.704s-1.9-3.704-3.893-3.704zm.094 5.699H94.71V16.68h2.565c1.329 0 2.089 1.14 2.089 1.994-.095 1.045-.855 2.09-2.09 2.09zm10.922-1.71c-1.33 0-2.659.57-3.134 1.805l1.614.664c.38-.665.95-.854 1.615-.854.949 0 1.804.57 1.899 1.519v.095c-.285-.19-1.045-.475-1.804-.475-1.71 0-3.419.95-3.419 2.66 0 1.614 1.424 2.658 2.944 2.658 1.234 0 1.804-.57 2.279-1.14h.095v.95h1.709V22.38c-.19-2.09-1.804-3.324-3.798-3.324zm-.19 6.553c-.57 0-1.425-.285-1.425-1.045 0-.95 1.045-1.234 1.9-1.234.759 0 1.139.19 1.614.38-.19 1.14-1.14 1.899-2.089 1.899zm9.971-6.268l-1.994 5.128h-.095l-2.089-5.128h-1.9l3.134 7.218-1.804 3.988h1.804l4.844-11.206h-1.9zm-15.954 7.597h1.804v-11.87h-1.804v11.87z" fill="#fff"/><path d="M10.38 5.57c-.285.285-.38.76-.38 1.33v20.987c0 .57.19 1.045.475 1.33l.095.095 11.776-11.776v-.19L10.38 5.57z" fill="url(#paint0_linear)"/><path d="M26.144 21.524l-3.893-3.893v-.285l3.893-3.894.095.095 4.654 2.66c1.33.759 1.33 1.993 0 2.753l-4.749 2.564z" fill="url(#paint1_linear)"/><path d="M26.24 21.43l-3.99-3.99-11.87 11.871c.475.475 1.14.475 1.994.096l13.865-7.978z" fill="url(#paint2_linear)"/><path d="M26.24 13.452L12.373 5.57c-.854-.475-1.52-.38-1.994.095L22.25 17.44l3.99-3.989z" fill="url(#paint3_linear)"/><path opacity=".2" d="M26.144 21.334l-13.77 7.788c-.76.474-1.424.38-1.9 0l-.094.095.095.095c.475.38 1.14.474 1.9 0l13.77-7.978z" fill="#000"/><path opacity=".2" d="M10.38 29.122c-.285-.285-.38-.76-.38-1.33v.095c0 .57.19 1.045.475 1.33v-.095h-.095zm20.513-10.447l-4.749 2.66.095.094 4.654-2.659c.665-.38.95-.854.95-1.33 0 .476-.38.855-.95 1.235z" fill="#000"/><path opacity=".2" d="M12.374 5.665l18.519 10.541c.57.38.95.76.95 1.235 0-.475-.285-.95-.95-1.33L12.374 5.57C11.044 4.81 10 5.38 10 6.9v.094c0-1.424 1.045-2.089 2.374-1.33z" fill="#fff"/></g><defs><linearGradient id="paint0_linear" x1="21.206" y1="6.719" x2="5.268" y2="22.656" gradientUnits="userSpaceOnUse"><stop stop-color="#00A0FF"/><stop offset=".007" stop-color="#00A1FF"/><stop offset=".26" stop-color="#00BEFF"/><stop offset=".512" stop-color="#00D2FF"/><stop offset=".76" stop-color="#00DFFF"/><stop offset="1" stop-color="#00E3FF"/></linearGradient><linearGradient id="paint1_linear" x1="32.634" y1="17.442" x2="9.655" y2="17.442" gradientUnits="userSpaceOnUse"><stop stop-color="#FFE000"/><stop offset=".409" stop-color="#FFBD00"/><stop offset=".775" stop-color="orange"/><stop offset="1" stop-color="#FF9C00"/></linearGradient><linearGradient id="paint2_linear" x1="24.081" y1="19.621" x2="2.468" y2="41.234" gradientUnits="userSpaceOnUse"><stop stop-color="#FF3A44"/><stop offset="1" stop-color="#C31162"/></linearGradient><linearGradient id="paint3_linear" x1="7.433" y1="-1.386" x2="17.084" y2="8.266" gradientUnits="userSpaceOnUse"><stop stop-color="#32A071"/><stop offset=".069" stop-color="#2DA771"/><stop offset=".476" stop-color="#15CF74"/><stop offset=".801" stop-color="#06E775"/><stop offset="1" stop-color="#00F076"/></linearGradient><clipPath id="clip0"><path fill="#fff" d="M0 0H130V35H0z"/></clipPath></defs></svg>